# Blender v2.91.0 OBJ File: 'CompassCylinder.blend'
# www.blender.org
mtllib CompassCylinderSheared.mtl
o Cylinder
v 0.000000 -0.086113 -0.867381
v 0.000000 0.086113 -1.000000
v 0.169218 -0.086113 -0.850715
v 0.195090 0.086113 -0.980785
v 0.331933 -0.086113 -0.801356
v 0.382683 0.086113 -0.923880
v 0.481891 -0.086113 -0.721201
v 0.555570 0.086113 -0.831470
v 0.613331 -0.086113 -0.613331
v 0.707107 0.086113 -0.707107
v 0.721201 -0.086113 -0.481891
v 0.831470 0.086113 -0.555570
v 0.801356 -0.086113 -0.331933
v 0.923880 0.086113 -0.382683
v 0.850715 -0.086113 -0.169218
v 0.980785 0.086113 -0.195090
v 0.867381 -0.086113 -0.000000
v 1.000000 0.086113 -0.000000
v 0.850715 -0.086113 0.169218
v 0.980785 0.086113 0.195090
v 0.801356 -0.086113 0.331932
v 0.923880 0.086113 0.382683
v 0.721201 -0.086113 0.481891
v 0.831470 0.086113 0.555570
v 0.613331 -0.086113 0.613331
v 0.707107 0.086113 0.707107
v 0.481891 -0.086113 0.721201
v 0.555570 0.086113 0.831470
v 0.331932 -0.086113 0.801356
v 0.382683 0.086113 0.923880
v 0.169218 -0.086113 0.850715
v 0.195090 0.086113 0.980785
v -0.000000 -0.086113 0.867381
v -0.000000 0.086113 1.000000
v -0.169218 -0.086113 0.850715
v -0.195091 0.086113 0.980785
v -0.331933 -0.086113 0.801356
v -0.382684 0.086113 0.923879
v -0.481892 -0.086113 0.721201
v -0.555571 0.086113 0.831469
v -0.613332 -0.086113 0.613331
v -0.707107 0.086113 0.707106
v -0.721202 -0.086113 0.481891
v -0.831470 0.086113 0.555570
v -0.801356 -0.086113 0.331932
v -0.923880 0.086113 0.382683
v -0.850715 -0.086113 0.169217
v -0.980785 0.086113 0.195089
v -0.867381 -0.086113 -0.000001
v -1.000000 0.086113 -0.000001
v -0.850715 -0.086113 -0.169219
v -0.980785 0.086113 -0.195091
v -0.801356 -0.086113 -0.331933
v -0.923879 0.086113 -0.382684
v -0.721201 -0.086113 -0.481892
v -0.831469 0.086113 -0.555571
v -0.613330 -0.086113 -0.613332
v -0.707106 0.086113 -0.707108
v -0.481890 -0.086113 -0.721202
v -0.555569 0.086113 -0.831470
v -0.331931 -0.086113 -0.801356
v -0.382682 0.086113 -0.923880
v -0.169216 -0.086113 -0.850715
v -0.195089 0.086113 -0.980786
vt 1.000000 0.500000
vt 0.968750 0.500000
vt 0.968750 1.000000
vt 1.000000 1.000000
vt 0.937500 0.500000
vt 0.937500 1.000000
vt 0.906250 0.500000
vt 0.906250 1.000000
vt 0.875000 0.500000
vt 0.875000 1.000000
vt 0.843750 0.500000
vt 0.843750 1.000000
vt 0.812500 0.500000
vt 0.812500 1.000000
vt 0.781250 0.500000
vt 0.781250 1.000000
vt 0.750000 0.500000
vt 0.750000 1.000000
vt 0.718750 0.500000
vt 0.718750 1.000000
vt 0.687500 0.500000
vt 0.687500 1.000000
vt 0.656250 0.500000
vt 0.656250 1.000000
vt 0.625000 0.500000
vt 0.625000 1.000000
vt 0.593750 0.500000
vt 0.593750 1.000000
vt 0.562500 0.500000
vt 0.562500 1.000000
vt 0.531250 0.500000
vt 0.531250 1.000000
vt 0.500000 0.500000
vt 0.500000 1.000000
vt 0.468750 0.500000
vt 0.468750 1.000000
vt 0.437500 0.500000
vt 0.437500 1.000000
vt 0.406250 0.500000
vt 0.406250 1.000000
vt 0.375000 0.500000
vt 0.375000 1.000000
vt 0.343750 0.500000
vt 0.343750 1.000000
vt 0.312500 0.500000
vt 0.312500 1.000000
vt 0.281250 0.500000
vt 0.281250 1.000000
vt 0.250000 0.500000
vt 0.250000 1.000000
vt 0.218750 0.500000
vt 0.218750 1.000000
vt 0.187500 0.500000
vt 0.187500 1.000000
vt 0.156250 0.500000
vt 0.156250 1.000000
vt 0.125000 0.500000
vt 0.125000 1.000000
vt 0.093750 0.500000
vt 0.093750 1.000000
vt 0.062500 0.500000
vt 0.062500 1.000000
vt 0.031250 0.500000
vt 0.031250 1.000000
vt 0.000000 0.500000
vt 0.000000 1.000000
vn -0.0778 0.6083 0.7899
vn -0.2304 0.6083 0.7596
vn -0.3742 0.6083 0.7000
vn -0.5035 0.6083 0.6136
vn -0.6136 0.6083 0.5035
vn -0.7000 0.6083 0.3742
vn -0.7596 0.6083 0.2304
vn -0.7899 0.6083 0.0778
vn -0.7899 0.6083 -0.0778
vn -0.7596 0.6083 -0.2304
vn -0.7000 0.6083 -0.3742
vn -0.6136 0.6083 -0.5035
vn -0.5035 0.6083 -0.6136
vn -0.3742 0.6083 -0.7000
vn -0.2304 0.6083 -0.7596
vn -0.0778 0.6083 -0.7899
vn 0.0778 0.6083 -0.7899
vn 0.2304 0.6083 -0.7596
vn 0.3742 0.6083 -0.7000
vn 0.5035 0.6083 -0.6136
vn 0.6136 0.6083 -0.5035
vn 0.7000 0.6083 -0.3742
vn 0.7596 0.6083 -0.2304
vn 0.7899 0.6083 -0.0778
vn 0.7899 0.6083 0.0778
vn 0.7596 0.6083 0.2304
vn 0.7000 0.6083 0.3742
vn 0.6136 0.6083 0.5035
vn 0.5035 0.6083 0.6136
vn 0.3742 0.6083 0.7000
vn 0.2304 0.6083 0.7596
vn 0.0778 0.6083 0.7899
usemtl None
s off
f 1/1/1 3/2/1 4/3/1 2/4/1
f 3/2/2 5/5/2 6/6/2 4/3/2
f 5/5/3 7/7/3 8/8/3 6/6/3
f 7/7/4 9/9/4 10/10/4 8/8/4
f 9/9/5 11/11/5 12/12/5 10/10/5
f 11/11/6 13/13/6 14/14/6 12/12/6
f 13/13/7 15/15/7 16/16/7 14/14/7
f 15/15/8 17/17/8 18/18/8 16/16/8
f 17/17/9 19/19/9 20/20/9 18/18/9
f 19/19/10 21/21/10 22/22/10 20/20/10
f 21/21/11 23/23/11 24/24/11 22/22/11
f 23/23/12 25/25/12 26/26/12 24/24/12
f 25/25/13 27/27/13 28/28/13 26/26/13
f 27/27/14 29/29/14 30/30/14 28/28/14
f 29/29/15 31/31/15 32/32/15 30/30/15
f 31/31/16 33/33/16 34/34/16 32/32/16
f 33/33/17 35/35/17 36/36/17 34/34/17
f 35/35/18 37/37/18 38/38/18 36/36/18
f 37/37/19 39/39/19 40/40/19 38/38/19
f 39/39/20 41/41/20 42/42/20 40/40/20
f 41/41/21 43/43/21 44/44/21 42/42/21
f 43/43/22 45/45/22 46/46/22 44/44/22
f 45/45/23 47/47/23 48/48/23 46/46/23
f 47/47/24 49/49/24 50/50/24 48/48/24
f 49/49/25 51/51/25 52/52/25 50/50/25
f 51/51/26 53/53/26 54/54/26 52/52/26
f 53/53/27 55/55/27 56/56/27 54/54/27
f 55/55/28 57/57/28 58/58/28 56/56/28
f 57/57/29 59/59/29 60/60/29 58/58/29
f 59/59/30 61/61/30 62/62/30 60/60/30
f 61/61/31 63/63/31 64/64/31 62/62/31
f 63/63/32 1/65/32 2/66/32 64/64/32
